<?xml version="1.0" encoding="UTF-8"?>
<svg width="24px" height="24px" viewBox="0 0 24 24" version="1.1" xmlns="http://www.w3.org/2000/svg" xmlns:xlink="http://www.w3.org/1999/xlink">
    <title>Group 17</title>
    <defs>
        <filter color-interpolation-filters="auto" id="filter-1">
            <feColorMatrix in="SourceGraphic" type="matrix" values="0 0 0 0 0.000000 0 0 0 0 0.000000 0 0 0 0 0.000000 0 0 0 1.000000 0"></feColorMatrix>
        </filter>
    </defs>
    <g id="DAMAC-Property-Listings-Page" stroke="none" stroke-width="1" fill="none" fill-rule="evenodd">
        <g id="Group-17" filter="url(#filter-1)">
            <g>
                <g id="crop_square_black_24dp">
                    <g id="Path-3">
                        <polygon id="Path" points="0 0 24 0 24 24 0 24"></polygon>
                    </g>
                    <path d="M18,4 L6,4 C4.9,4 4,4.9 4,6 L4,18 C4,19.1 4.9,20 6,20 L18,20 C19.1,20 20,19.1 20,18 L20,6 C20,4.9 19.1,4 18,4 Z M18,18 L6,18 L6,6 L18,6 L18,18 Z" id="Shape" fill="#000000" fill-rule="nonzero"></path>
                </g>
                <g id="fullscreen_exit_black_24dp">
                    <g id="Path-2">
                        <polygon id="Path" points="0 0 24 0 24 24 0 24"></polygon>
                    </g>
                    <path d="M5,16 L8,16 L8,19 L10,19 L10,14 L5,14 L5,16 Z M8,8 L5,8 L5,10 L10,10 L10,5 L8,5 L8,8 Z M14,19 L16,19 L16,16 L19,16 L19,14 L14,14 L14,19 Z M16,8 L16,5 L14,5 L14,10 L19,10 L19,8 L16,8 Z" id="Shape" fill="#000000" fill-rule="nonzero"></path>
                </g>
            </g>
        </g>
    </g>
</svg>