<?xml version="1.0" encoding="UTF-8"?>
<svg width="24px" height="24px" viewBox="0 0 24 24" version="1.1" xmlns="http://www.w3.org/2000/svg" xmlns:xlink="http://www.w3.org/1999/xlink">
    <title>bedroom_parent_black_24dp</title>
    <defs>
        <filter color-interpolation-filters="auto" id="filter-1">
            <feColorMatrix in="SourceGraphic" type="matrix" values="0 0 0 0 0.000000 0 0 0 0 0.000000 0 0 0 0 0.000000 0 0 0 1.000000 0"></feColorMatrix>
        </filter>
    </defs>
    <g id="DAMAC-Property-Listings-Page" stroke="none" stroke-width="1" fill="none" fill-rule="evenodd">
        <g id="bedroom_parent_black_24dp" filter="url(#filter-1)">
            <g>
                <polygon id="Path" points="0 0 24 0 24 24 0 24"></polygon>
                <path d="M18.35,11.45 L18.35,9 C18.35,7.9 17.45,7 16.35,7 L13,7 C12.63,7 12.28,7.12 12,7.32 C11.72,7.12 11.37,7 11,7 L7.65,7 C6.55,7 5.65,7.9 5.65,9 L5.65,11.45 C5.25,11.91 5,12.51 5,13.17 L5,17 L6.5,17 L6.5,15.5 L17.5,15.5 L17.5,17 L19,17 L19,13.17 C19,12.51 18.75,11.91 18.35,11.45 Z M16.75,10.5 L12.75,10.5 L12.75,8.5 L16.75,8.5 L16.75,10.5 Z M7.25,8.5 L11.25,8.5 L11.25,10.5 L7.25,10.5 L7.25,8.5 Z M17.5,14 L6.5,14 L6.5,13 C6.5,12.45 6.95,12 7.5,12 L16.5,12 C17.05,12 17.5,12.45 17.5,13 L17.5,14 Z M20,4 L20,20 L4,20 L4,4 L20,4 M20,2 L4,2 C2.9,2 2,2.9 2,4 L2,20 C2,21.1 2.9,22 4,22 L20,22 C21.1,22 22,21.1 22,20 L22,4 C22,2.9 21.1,2 20,2 Z" id="Shape" fill="#000000" fill-rule="nonzero"></path>
            </g>
        </g>
    </g>
</svg>